<?xml version="1.0" encoding="UTF-8"?>
<svg width="64px" height="64px" viewBox="0 0 64 64" version="1.1" xmlns="http://www.w3.org/2000/svg" xmlns:xlink="http://www.w3.org/1999/xlink">
    <!-- Generator: Sketch 51.1 (57501) - http://www.bohemiancoding.com/sketch -->
    <title>64x64</title>
    <desc>Created with Sketch.</desc>
    <defs>
        <linearGradient x1="-33.0578314%" y1="133.716883%" x2="100%" y2="0%" id="linearGradient-1">
            <stop stop-color="#EF5777" offset="0%"></stop>
            <stop stop-color="#E97C93" offset="100%"></stop>
        </linearGradient>
    </defs>
    <g id="64x64" stroke="none" stroke-width="1" fill="none" fill-rule="evenodd">
        <g id="Minecraft-Sword-595b40b75ba036ed117d98cb-Copy" transform="translate(32.405592, 32.405592) rotate(-45.000000) translate(-32.405592, -32.405592) translate(10.905592, 10.905592)" fill-rule="nonzero">
            <path d="M29.8093434,0 L29.8093434,4.25847763 L38.3262987,4.25847763 L38.3262987,12.7754329 L42.5847763,12.7754329 L42.5847763,0 L29.8093434,0 Z M38.3262987,12.7754329 L34.067821,12.7754329 L34.067821,17.0339105 L38.3262987,17.0339105 L38.3262987,12.7754329 Z M34.067821,17.0339105 L29.8093434,17.0339105 L29.8093434,21.2923882 L34.067821,21.2923882 L34.067821,17.0339105 Z M29.8093434,21.2923882 L25.5508658,21.2923882 L25.5508658,25.5508658 L29.8093434,25.5508658 L29.8093434,21.2923882 Z M25.5508658,25.5508658 L21.2923882,25.5508658 L21.2923882,29.8093434 L25.5508658,29.8093434 L25.5508658,25.5508658 Z M21.2923882,29.8093434 L12.7754329,29.8093434 L12.7754329,34.067821 L21.2923882,34.067821 L21.2923882,29.8093434 Z M21.2923882,34.067821 L21.2923882,38.3262987 L17.0339105,38.3262987 L17.0339105,42.5847763 L25.5508658,42.5847763 L25.5508658,34.067821 L21.2923882,34.067821 Z M12.7754329,34.067821 L8.51695526,34.067821 L8.51695526,38.3262987 L12.7754329,38.3262987 L12.7754329,34.067821 Z M8.51695526,38.3262987 L4.25847763,38.3262987 L4.25847763,34.067821 L0,34.067821 L0,42.5847763 L8.51695526,42.5847763 L8.51695526,38.3262987 Z M4.25847763,34.067821 L8.51695526,34.067821 L8.51695526,29.8093434 L4.25847763,29.8093434 L4.25847763,34.067821 Z M8.51695526,29.8093434 L12.7754329,29.8093434 L12.7754329,21.2923882 L8.51695526,21.2923882 L8.51695526,29.8093434 Z M8.51695526,21.2923882 L8.51695526,17.0339105 L0,17.0339105 L0,25.5508658 L4.25847763,25.5508658 L4.25847763,21.2923882 L8.51695526,21.2923882 Z M12.7754329,21.2923882 L17.0339105,21.2923882 L17.0339105,17.0339105 L12.7754329,17.0339105 L12.7754329,21.2923882 Z M17.0339105,17.0339105 L21.2923882,17.0339105 L21.2923882,12.7754329 L17.0339105,12.7754329 L17.0339105,17.0339105 Z M21.2923882,12.7754329 L25.5508658,12.7754329 L25.5508658,8.51695526 L21.2923882,8.51695526 L21.2923882,12.7754329 Z M25.5508658,8.51695526 L29.8093434,8.51695526 L29.8093434,4.25847763 L25.5508658,4.25847763 L25.5508658,8.51695526 Z" id="Shape" fill="#000000"></path>
            <path d="M21.2923882,25.5508658 L21.2923882,29.8093434 L17.0339105,29.8093434 L12.7754329,29.8093434 L12.7754329,25.5508658 L12.7754329,21.2923882 L17.0339105,21.2923882 L17.0339105,17.0339105 L21.2923882,17.0339105 L21.2923882,12.7754329 L25.5508658,12.7754329 L25.5508658,8.51695526 L29.8093434,8.51695526 L29.8093434,4.25847763 L34.067821,4.25847763 L38.3262987,4.25847763 L38.3262987,8.51695526 L38.3262987,12.7754329 L34.067821,12.7754329 L34.067821,17.0339105 L29.8093434,17.0339105 L29.8093434,21.2923882 L25.5508658,21.2923882 L25.5508658,25.5508658 L21.2923882,25.5508658 Z" id="Combined-Shape" fill="url(#linearGradient-1)"></path>
        </g>
    </g>
</svg>