<svg xmlns="http://www.w3.org/2000/svg" xmlns:xlink="http://www.w3.org/1999/xlink" width="25" height="25" viewBox="0 0 25 25"><defs><path id="krsva" d="M1352 30.05v1.93a4.02 4.02 0 0 0 4 4.02h1.92v-5.95zm9.44 5.95h5.92v-5.95h-5.92zm9.44 0h1.92c2.16 0 4-1.77 4-4.03v-1.92h-5.92zM1352 26.5h5.92v-5.95H1352zm5.92-15.51H1356c-2.16 0-4 1.77-4 4.02v1.93h5.92zm14.96 0h-11.44v15.43h15.36V15.01a4 4 0 0 0-3.92-4.01z"/></defs><g><g transform="translate(-1352 -11)"><use fill="#474747" xlink:href="#krsva"/></g></g></svg>