<?xml version="1.0" encoding="UTF-8"?>
<svg width="22px" height="20px" viewBox="0 0 22 20" version="1.1" xmlns="http://www.w3.org/2000/svg" xmlns:xlink="http://www.w3.org/1999/xlink">
    <g id="Page-1" stroke="none" stroke-width="1" fill="none" fill-rule="evenodd">
        <g id="excalibur" transform="translate(-1392.000000, -13.000000)">
            <g id="header">
                <g id="metaMask" transform="translate(1392.000000, 13.000000)">
                    <g id="metamask-recreated-faux-shadow">
                        <polygon id="Path-16" fill="#CDBDB2" points="6.30424538 18.3010566 9.16450485 19.0735038 9.16450485 18.0633806 9.39799542 17.8257045 11.0324294 17.8257045 11.0324294 19.0140848 11.0324294 19.845951 9.28125014 19.845951 7.12146237 18.8952468"></polygon>
                        <polygon id="Path-16-Copy" fill="#CDBDB2" transform="translate(13.308962, 18.835828) scale(-1, 1) translate(-13.308962, -18.835828) " points="10.9740568 18.3010566 13.7759436 19.0735038 13.7759436 18.0633806 14.0094342 17.8257045 15.6438682 17.8257045 15.6438682 19.0140848 15.6438682 19.845951 13.8926889 19.845951 11.7329011 18.8952468"></polygon>
                        <polygon id="Path-17" fill="#393939" points="9.39799542 16.1025531 9.16450485 18.0633806 9.45636807 17.8257045 12.4917455 17.8257045 12.8419813 18.0633806 12.6084908 16.1025531 12.1415096 15.805458 9.80660392 15.864877"></polygon>
                        <polygon id="Path-20" fill="#F89C35" points="7.82193408 2.85211272 9.2228775 6.17957756 9.86497656 15.864877 12.1415096 15.864877 12.8419813 6.17957756 14.1261795 2.85211272"></polygon>
                        <g id="face/left">
                            <polygon id="Path-15" fill="#F89D35" points="1.69280663 10.1606516 0.0583726424 14.9735918 4.14445761 14.7359157 6.77122652 14.7359157 6.77122652 12.6562502 6.65448123 8.37808111 6.07075481 8.85343323"></polygon>
                            <polygon id="Path-8" fill="#D87C30" points="4.78655668 10.6954227 9.57311335 10.8142607 9.04775957 13.3098594 6.77122652 12.7156692"></polygon>
                            <polygon id="Path-9" fill="#EA8D3A" points="4.78655668 10.7548417 6.77122652 12.6562502 6.77122652 14.5576587"></polygon>
                            <polygon id="Path-10" fill="#F89D35" points="6.77122652 12.7156692 9.10613221 13.3098594 9.86497656 15.864877 9.33962278 16.1619721 6.77122652 14.6170777"></polygon>
                            <polygon id="Path-11" fill="#EB8F35" points="6.77122652 14.6170777 6.30424538 18.3010566 9.39799542 16.1025531"></polygon>
                            <polygon id="Path-12" fill="#EA8E3A" points="9.57311335 10.8142607 9.86497656 15.864877 8.98938693 13.2801498"></polygon>
                            <polygon id="Path-13" fill="#D87C30" points="4.08608497 14.6764967 6.77122652 14.6170777 6.30424538 18.3010566"></polygon>
                            <polygon id="Path-14" fill="#D87C30" points="1.34257077 19.90537 6.30424538 18.3010566 4.08608497 14.6764967 0.0583726424 14.9735918"></polygon>
                            <polygon id="Path-7" fill="#E8821E" points="9.2228775 6.17957756 6.71285387 8.3186621 4.78655668 10.6954227 9.57311335 10.8736797"></polygon>
                            <polygon id="Path-18" fill="#DFCEC3" points="6.30424538 18.3010566 9.39799542 16.1025531 9.16450485 18.0039615 9.16450485 19.0735038 7.06308973 18.6575707"></polygon>
                            <polygon id="Path-18-Copy" fill="#DFCEC3" transform="translate(14.126179, 17.588028) scale(-1, 1) translate(-14.126179, -17.588028) " points="12.6084908 18.3010566 15.6438682 16.1025531 15.4103776 18.0039615 15.4103776 19.0735038 13.3089625 18.6575707"></polygon>
                            <polygon id="Path-19-Copy" fill="#393939" transform="translate(7.792748, 12.567122) scale(-1, 1) translate(-7.792748, -12.567122) " points="7.2965803 11.883803 6.65448123 13.2504403 8.93101428 12.6562502"></polygon>
                            <polygon id="Path-21" fill="#E88F35" points="1.28419813 0.059419015 9.2228775 6.17957756 7.88030672 2.85211272"></polygon>
                            <path d="M1.28419813,0.059419015 L0.23349057,3.32746484 L0.817216993,6.89260574 L0.408608497,7.1302818 L0.99233492,7.66505293 L0.525353781,8.08098604 L1.16745285,8.67517619 L0.758844351,9.03169028 L1.69280663,10.2200706 L6.07075481,8.85343323 C8.21108503,7.11047546 9.26179259,6.21919023 9.2228775,6.17957756 C9.1839624,6.13996488 6.53773595,4.09991203 1.28419813,0.059419015 Z" id="Path-22" fill="#8E5A30"></path>
                        </g>
                        <g id="face/left-copy" transform="translate(16.966981, 9.982395) scale(-1, 1) translate(-16.966981, -9.982395) translate(11.985849, 0.000000)">
                            <polygon id="Path-15" fill="#F89D35" points="1.69280663 10.1606516 0.0583726424 14.9735918 4.14445761 14.7359157 6.77122652 14.7359157 6.77122652 12.6562502 6.65448123 8.37808111 6.07075481 8.85343323"></polygon>
                            <polygon id="Path-8" fill="#D87C30" points="4.78655668 10.6954227 9.57311335 10.8142607 9.04775957 13.3098594 6.77122652 12.7156692"></polygon>
                            <polygon id="Path-9" fill="#EA8D3A" points="4.78655668 10.7548417 6.77122652 12.6562502 6.77122652 14.5576587"></polygon>
                            <polygon id="Path-10" fill="#F89D35" points="6.77122652 12.7156692 9.10613221 13.3098594 9.86497656 15.864877 9.33962278 16.1619721 6.77122652 14.6170777"></polygon>
                            <polygon id="Path-11" fill="#EB8F35" points="6.77122652 14.6170777 6.30424538 18.3010566 9.33962278 16.1619721"></polygon>
                            <polygon id="Path-12" fill="#EA8E3A" points="9.57311335 10.8142607 9.86497656 15.864877 8.98938693 13.2801498"></polygon>
                            <polygon id="Path-13" fill="#D87C30" points="4.08608497 14.6764967 6.77122652 14.6170777 6.30424538 18.3010566"></polygon>
                            <polygon id="Path-14" fill="#D87C30" points="1.34257077 19.90537 6.30424538 18.3010566 4.08608497 14.6764967 0.0583726424 14.9735918"></polygon>
                            <polygon id="Path-7" fill="#E8821E" points="9.2228775 6.17957756 6.71285387 8.3186621 4.78655668 10.6954227 9.57311335 10.8736797"></polygon>
                            <polygon id="Path-19-Copy" fill="#393939" transform="translate(7.792748, 12.567122) scale(-1, 1) translate(-7.792748, -12.567122) " points="7.2965803 11.883803 6.65448123 13.2504403 8.93101428 12.6562502"></polygon>
                            <polygon id="Path-21" fill="#E88F35" points="1.28419813 0.059419015 9.2228775 6.17957756 7.88030672 2.85211272"></polygon>
                            <path d="M1.28419813,0.059419015 L0.23349057,3.32746484 L0.817216993,6.89260574 L0.408608497,7.1302818 L0.99233492,7.66505293 L0.525353781,8.08098604 L1.16745285,8.67517619 L0.758844351,9.03169028 L1.69280663,10.2200706 L6.07075481,8.85343323 C8.21108503,7.11047546 9.26179259,6.21919023 9.2228775,6.17957756 C9.1839624,6.13996488 6.53773595,4.09991203 1.28419813,0.059419015 Z" id="Path-22" fill="#8E5A30"></path>
                        </g>
                    </g>
                </g>
            </g>
        </g>
    </g>
</svg>