<svg xmlns="http://www.w3.org/2000/svg" xmlns:xlink="http://www.w3.org/1999/xlink" width="28" height="25" viewBox="0 0 28 25"><defs><path id="q3dsa" d="M1400.02 33.88l3.64.96v-1.26l.3-.3h2.08V35.81h-2.23l-2.75-1.2z"/><path id="q3dsb" d="M1411.9 33.88l-3.56.96v-1.26l-.3-.3h-2.08V35.81h2.23l2.75-1.2z"/><path id="q3dsc" d="M1403.96 31.13l-.3 2.45.37-.3h3.86l.45.3-.3-2.45-.6-.37-2.96.07z"/><path id="q3dsd" d="M1401.95 14.57l1.78 4.15.82 12.11h2.9l.89-12.1 1.63-4.16z"/><path id="q3dse" d="M1394.15 23.7l-2.08 6.02 5.2-.3h3.34v-2.6l-.14-5.35-.75.6z"/><path id="q3dsf" d="M1398.09 24.37l6.09.15-.67 3.12-2.9-.74z"/><path id="q3dsg" d="M1398.09 24.44l2.52 2.38v2.38z"/><path id="q3dsh" d="M1400.62 26.9l2.97.74.96 3.2-.67.36-3.26-1.93z"/><path id="q3dsi" d="M1400.61 29.27l-.59 4.6 3.94-2.74z"/><path id="q3dsj" d="M1404.18 24.52l.37 6.31-1.11-3.23z"/><path id="q3dsk" d="M1397.2 29.35l3.41-.08-.59 4.6z"/><path id="q3dsl" d="M1393.7 35.88l6.32-2-2.82-4.53-5.13.37z"/><path id="q3dsm" d="M1403.73 18.73l-3.19 2.67-2.45 2.97 6.09.22z"/><path id="q3dsn" d="M1400.02 33.88l3.94-2.75-.3 2.38v1.33l-2.67-.52z"/><path id="q3dso" d="M1411.9 33.88l-3.86-2.75.3 2.38v1.33l2.67-.52z"/><path id="q3dsp" d="M1402.55 25.86l.81 1.7-2.9-.74z"/><path id="q3dsq" d="M1393.63 11.07l10.1 7.65-1.7-4.16z"/><path id="q3dsr" d="M1393.63 11.07l-1.33 4.09.74 4.46-.52.3.74.66-.6.52.83.74-.52.45 1.18 1.48 5.57-1.7s4.09-3.27 4.01-3.35c-.07-.07-10.1-7.65-10.1-7.65z"/><path id="q3dss" d="M1409.4 23.7l-2.08 6.02 5.2-.3h3.34v-2.6l-.14-5.35-.75.6z"/><path id="q3dst" d="M1413.34 24.37l6.09.15-.67 3.12-2.9-.74z"/><path id="q3dsu" d="M1413.34 24.44l2.52 2.38v2.38z"/><path id="q3dsv" d="M1415.86 26.9l2.97.74.97 3.2-.67.36-3.27-1.93z"/><path id="q3dsw" d="M1415.86 29.27l-.59 4.6 3.86-2.67z"/><path id="q3dsx" d="M1419.43 24.52l.37 6.31-1.11-3.23z"/><path id="q3dsy" d="M1412.45 29.35l3.41-.08-.59 4.6z"/><path id="q3dsz" d="M1408.96 35.88l6.31-2-2.82-4.53-5.13.37z"/><path id="q3dsA" d="M1418.98 18.73l-3.19 2.67-2.45 2.97 6.09.22z"/><path id="q3dsB" d="M1417.8 25.86l.81 1.7-2.9-.74z"/><path id="q3dsC" d="M1408.88 11.07l10.1 7.65-1.7-4.16z"/><path id="q3dsD" d="M1408.88 11.07l-1.33 4.09.74 4.46-.52.3.74.66-.6.52.82.74-.52.45 1.2 1.48 5.56-1.7s4.09-3.27 4.01-3.35c-.07-.07-10.1-7.65-10.1-7.65z"/></defs><g><g transform="translate(-1392 -11)"><g><use fill="#cdbdb2" xlink:href="#q3dsa"/></g><g><use fill="#cdbdb2" xlink:href="#q3dsb"/></g><g><use fill="#393939" xlink:href="#q3dsc"/></g><g><use fill="#f89c35" xlink:href="#q3dsd"/></g><g><g><use fill="#f89d35" xlink:href="#q3dse"/></g><g><use fill="#d87c30" xlink:href="#q3dsf"/></g><g><use fill="#ea8d3a" xlink:href="#q3dsg"/></g><g><use fill="#f89d35" xlink:href="#q3dsh"/></g><g><use fill="#eb8f35" xlink:href="#q3dsi"/></g><g><use fill="#ea8e3a" xlink:href="#q3dsj"/></g><g><use fill="#d87c30" xlink:href="#q3dsk"/></g><g><use fill="#d87c30" xlink:href="#q3dsl"/></g><g><use fill="#e8821e" xlink:href="#q3dsm"/></g><g><use fill="#dfcec3" xlink:href="#q3dsn"/></g><g><use fill="#dfcec3" xlink:href="#q3dso"/></g><g><use fill="#393939" xlink:href="#q3dsp"/></g><g><use fill="#e88f35" xlink:href="#q3dsq"/></g><g><use fill="#8e5a30" xlink:href="#q3dsr"/></g></g><g transform="matrix(-1 0 0 1 2827 0)"><g><use fill="#f89d35" xlink:href="#q3dss"/></g><g><use fill="#d87c30" xlink:href="#q3dst"/></g><g><use fill="#ea8d3a" xlink:href="#q3dsu"/></g><g><use fill="#f89d35" xlink:href="#q3dsv"/></g><g><use fill="#eb8f35" xlink:href="#q3dsw"/></g><g><use fill="#ea8e3a" xlink:href="#q3dsx"/></g><g><use fill="#d87c30" xlink:href="#q3dsy"/></g><g><use fill="#d87c30" xlink:href="#q3dsz"/></g><g><use fill="#e8821e" xlink:href="#q3dsA"/></g><g><use fill="#393939" xlink:href="#q3dsB"/></g><g><use fill="#e88f35" xlink:href="#q3dsC"/></g><g><use fill="#8e5a30" xlink:href="#q3dsD"/></g></g></g></g></svg>