<svg xmlns="http://www.w3.org/2000/svg" width="31" height="25" viewBox="0 0 31 25">
    <g fill="none" fill-rule="evenodd">
        <path stroke="#474747" stroke-width="2.38" d="M1.192 16.476V3.381A2.382 2.382 0 0 1 3.577 1h23.846a2.382 2.382 0 0 1 2.385 2.381v13.095"/>
        <path stroke="#474747" stroke-width="2.381" d="M1.192 7.143a2.382 2.382 0 0 1 2.385-2.381h23.846a2.382 2.382 0 0 1 2.385 2.38M1.192 11.905a2.382 2.382 0 0 1 2.385-2.381h23.846a2.382 2.382 0 0 1 2.385 2.38"/>
        <path fill="#474747" fill-rule="nonzero" d="M19.203 15.225l-.251.502a3.862 3.862 0 0 1-6.903 0l-.251-.502a3.862 3.862 0 0 0-3.452-2.13H0v8.334A3.574 3.574 0 0 0 3.577 25h23.846A3.574 3.574 0 0 0 31 21.429v-8.334h-8.346a3.859 3.859 0 0 0-3.45 2.13z"/>
    </g>
</svg>
