<?xml version="1.0" encoding="UTF-8"?>
<svg width="142px" height="22px" viewBox="0 0 142 22" version="1.1" xmlns="http://www.w3.org/2000/svg" xmlns:xlink="http://www.w3.org/1999/xlink">
    <!-- Generator: Sketch 49 (51002) - http://www.bohemiancoding.com/sketch -->
    <title>excaliburLogo</title>
    <desc>Created with Sketch.</desc>
    <defs></defs>
    <g id="Page-1" stroke="none" stroke-width="1" fill="none" fill-rule="evenodd">
        <g id="1" transform="translate(-20.000000, -12.000000)">
            <g id="header">
                <g id="excaliburLogo" transform="translate(20.000000, 12.000000)">
                    <g id="logo" transform="translate(-2.000000, -2.000000)">
                        <path d="M10.5185547,15.0810547 L4.97070312,15.0810547 L4.97070312,18.894043 L11.4555664,18.894043 L11.4555664,21 L2.35449219,21 L2.35449219,7.4921875 L11.4277344,7.4921875 L11.4277344,9.61669922 L4.97070312,9.61669922 L4.97070312,13.0214844 L10.5185547,13.0214844 L10.5185547,15.0810547 Z M18.2929688,14.0976562 L20.5009766,10.9619141 L23.2749023,10.9619141 L19.9072266,15.8881836 L23.3955078,21 L20.6123047,21 L18.3022461,17.7158203 L16.0107422,21 L13.2182617,21 L16.706543,15.8881836 L13.3481445,10.9619141 L16.1220703,10.9619141 L18.2929688,14.0976562 Z M29.5463867,19.1259766 C29.7999687,19.1259766 30.0411772,19.0888676 30.2700195,19.0146484 C30.4988618,18.9404293 30.6998689,18.8352871 30.8730469,18.6992188 C31.0462248,18.5631504 31.180745,18.3992523 31.2766113,18.2075195 C31.3724777,18.0157868 31.4142253,17.80241 31.4018555,17.5673828 L33.8325195,17.5673828 C33.8448894,18.0869167 33.738201,18.5693337 33.5124512,19.0146484 C33.2867013,19.4599632 32.9790059,19.8434229 32.5893555,20.1650391 C32.1997051,20.4866553 31.746666,20.7386872 31.2302246,20.9211426 C30.7137832,21.1035979 30.1679716,21.1948242 29.5927734,21.1948242 C28.8134727,21.1948242 28.1300485,21.0633965 27.5424805,20.8005371 C26.9549124,20.5376777 26.4647643,20.1774111 26.0720215,19.7197266 C25.6792786,19.262042 25.3824066,18.7255076 25.1813965,18.1101074 C24.9803864,17.4947072 24.8798828,16.8344762 24.8798828,16.1293945 L24.8798828,15.8510742 C24.8798828,15.1459926 24.9788402,14.4857615 25.1767578,13.8703613 C25.3746755,13.2549611 25.6715475,12.7184268 26.0673828,12.2607422 C26.4632181,11.8030576 26.9533662,11.4412448 27.5378418,11.175293 C28.1223174,10.9093411 28.8011029,10.7763672 29.5742188,10.7763672 C30.1927114,10.7763672 30.7648086,10.8691397 31.2905273,11.0546875 C31.8162461,11.2402353 32.2692852,11.5015445 32.6496582,11.838623 C33.0300312,12.1757016 33.325357,12.5839006 33.5356445,13.0632324 C33.745932,13.5425642 33.8448894,14.0790986 33.8325195,14.6728516 L31.4018555,14.6728516 C31.4142253,14.4254545 31.3771163,14.1904308 31.2905273,13.9677734 C31.2039384,13.7451161 31.0771493,13.5533862 30.9101562,13.3925781 C30.7431632,13.23177 30.5421561,13.1034347 30.3071289,13.0075684 C30.0721017,12.911702 29.8154311,12.8637695 29.5371094,12.8637695 C29.1289042,12.8637695 28.7918308,12.9472648 28.5258789,13.1142578 C28.2599271,13.2812508 28.0480965,13.5039049 27.8903809,13.7822266 C27.7326652,14.0605483 27.6213382,14.3790672 27.5563965,14.737793 C27.4914548,15.0965187 27.4589844,15.4676088 27.4589844,15.8510742 L27.4589844,16.1293945 C27.4589844,16.5190449 27.4899085,16.8947736 27.5517578,17.2565918 C27.6136071,17.61841 27.7233879,17.936929 27.8811035,18.2121582 C28.0388191,18.4873874 28.2521959,18.7084953 28.5212402,18.8754883 C28.7902845,19.0424813 29.1319966,19.1259766 29.5463867,19.1259766 Z M42.7758789,21 C42.7140296,20.8763015 42.6614585,20.7340503 42.6181641,20.5732422 C42.5748696,20.4124341 42.5377606,20.2423512 42.5068359,20.0629883 C42.3645826,20.2176115 42.2006845,20.362955 42.0151367,20.4990234 C41.8295889,20.6350918 41.6239432,20.7541499 41.3981934,20.8562012 C41.1724435,20.9582525 40.923504,21.0386553 40.6513672,21.0974121 C40.3792304,21.1561689 40.0854508,21.1855469 39.7700195,21.1855469 C39.2566706,21.1855469 38.785077,21.1113289 38.3552246,20.9628906 C37.9253722,20.8144524 37.5558284,20.6072604 37.246582,20.3413086 C36.9373357,20.0753567 36.6961272,19.758384 36.5229492,19.3903809 C36.3497713,19.0223777 36.2631836,18.6219097 36.2631836,18.1889648 C36.2631836,17.1313424 36.6574668,16.3133981 37.4460449,15.7351074 C38.2346231,15.1568168 39.4112877,14.8676758 40.9760742,14.8676758 L42.4140625,14.8676758 L42.4140625,14.2739258 C42.4140625,13.7915015 42.2563492,13.409588 41.940918,13.1281738 C41.6254867,12.8467597 41.1709014,12.7060547 40.5771484,12.7060547 C40.0514297,12.7060547 39.66797,12.8189279 39.4267578,13.0446777 C39.1855457,13.2704276 39.0649414,13.5719382 39.0649414,13.9492188 L36.4858398,13.9492188 C36.4858398,13.5224588 36.5801586,13.1173522 36.7687988,12.7338867 C36.9574391,12.3504213 37.2326642,12.0133478 37.5944824,11.7226562 C37.9563006,11.4319647 38.3985163,11.2015796 38.9211426,11.0314941 C39.4437689,10.8614087 40.0421516,10.7763672 40.7163086,10.7763672 C41.3224314,10.7763672 41.8867975,10.8505852 42.4094238,10.9990234 C42.9320501,11.1474617 43.3850892,11.3670233 43.7685547,11.6577148 C44.1520201,11.9484064 44.4519846,12.3148578 44.668457,12.7570801 C44.8849295,13.1993023 44.9931641,13.7110974 44.9931641,14.2924805 L44.9931641,18.597168 C44.9931641,19.1352566 45.0271806,19.5805646 45.0952148,19.9331055 C45.163249,20.2856463 45.2622064,20.5887032 45.3920898,20.8422852 L45.3920898,21 L42.7758789,21 Z M40.3173828,19.190918 C40.5771497,19.190918 40.8183583,19.1599938 41.0410156,19.0981445 C41.263673,19.0362953 41.4646801,18.9558924 41.644043,18.8569336 C41.8234058,18.7579748 41.9780267,18.6451015 42.1079102,18.5183105 C42.2377936,18.3915195 42.3398434,18.2631842 42.4140625,18.1333008 L42.4140625,16.4077148 L41.0966797,16.4077148 C40.6946594,16.4077148 40.3514012,16.4463701 40.0668945,16.5236816 C39.7823879,16.6009932 39.5504566,16.7092278 39.3710938,16.8483887 C39.1917309,16.9875495 39.0587569,17.15454 38.972168,17.3493652 C38.885579,17.5441904 38.8422852,17.756021 38.8422852,17.9848633 C38.8422852,18.3312192 38.9644356,18.618814 39.2087402,18.8476562 C39.4530448,19.0764985 39.8225887,19.190918 40.3173828,19.190918 Z M48.4443359,6.75 L54.0571289,6.75 L54.0571289,18.9033203 L56.9331055,18.9033203 L56.9331055,21 L48.4443359,21 L48.4443359,18.9033203 L51.4501953,18.9033203 L51.4501953,8.85595703 L48.4443359,8.85595703 L48.4443359,6.75 Z M59.9946289,10.9619141 L65.4589844,10.9619141 L65.4589844,18.9033203 L68.1772461,18.9033203 L68.1772461,21 L59.9946289,21 L59.9946289,18.9033203 L62.8520508,18.9033203 L62.8520508,13.0678711 L59.9946289,13.0678711 L59.9946289,10.9619141 Z M62.6665039,8.39208984 C62.6665039,8.19417219 62.7020667,8.01017338 62.7731934,7.84008789 C62.84432,7.6700024 62.9448236,7.52465881 63.074707,7.40405273 C63.2045905,7.28344666 63.3607576,7.18912794 63.5432129,7.12109375 C63.7256682,7.05305956 63.9282215,7.01904297 64.1508789,7.01904297 C64.6085635,7.01904297 64.9719225,7.14737827 65.2409668,7.40405273 C65.5100111,7.66072719 65.6445312,7.9900696 65.6445312,8.39208984 C65.6445312,8.79411008 65.5100111,9.12345249 65.2409668,9.38012695 C64.9719225,9.63680141 64.6085635,9.76513672 64.1508789,9.76513672 C63.9282215,9.76513672 63.7256682,9.73112013 63.5432129,9.66308594 C63.3607576,9.59505174 63.2045905,9.50073302 63.074707,9.38012695 C62.9448236,9.25952088 62.84432,9.11417728 62.7731934,8.9440918 C62.7020667,8.77400631 62.6665039,8.5900075 62.6665039,8.39208984 Z M79.7553711,16.0830078 C79.7553711,16.831384 79.673422,17.5179005 79.5095215,18.1425781 C79.3456209,18.7672557 79.0997738,19.3053363 78.7719727,19.7568359 C78.4441715,20.2083356 78.0359725,20.5593249 77.5473633,20.8098145 C77.0587541,21.060304 76.4897493,21.1855469 75.840332,21.1855469 C75.252764,21.1855469 74.7440614,21.0757661 74.314209,20.8562012 C73.8843566,20.6366363 73.5148127,20.3289408 73.2055664,19.9331055 L73.0849609,21 L70.765625,21 L70.765625,6.75 L73.3447266,6.75 L73.3447266,11.8710938 C73.641603,11.5247379 73.9925924,11.2556976 74.3977051,11.0639648 C74.8028178,10.8722321 75.2775038,10.7763672 75.8217773,10.7763672 C76.4773796,10.7763672 77.0510229,10.9031563 77.5427246,11.1567383 C78.0344263,11.4103203 78.4441715,11.7628558 78.7719727,12.2143555 C79.0997738,12.6658551 79.3456209,13.2054819 79.5095215,13.833252 C79.673422,14.461022 79.7553711,15.1459924 79.7553711,15.8881836 L79.7553711,16.0830078 Z M77.1762695,15.8881836 C77.1762695,15.4799784 77.1453454,15.0934263 77.0834961,14.7285156 C77.0216468,14.3636049 76.9149584,14.0435398 76.7634277,13.7683105 C76.611897,13.4930813 76.4062513,13.2750659 76.1464844,13.1142578 C75.8867175,12.9534497 75.5620137,12.8730469 75.1723633,12.8730469 C74.7023088,12.8730469 74.3203953,12.9720042 74.0266113,13.1699219 C73.7328273,13.3678395 73.5055347,13.6399722 73.3447266,13.9863281 L73.3447266,17.9848633 C73.5055347,18.3312192 73.7328273,18.6033519 74.0266113,18.8012695 C74.3203953,18.9991872 74.7084937,19.0981445 75.190918,19.0981445 C75.5805684,19.0981445 75.9021797,19.0223803 76.1557617,18.8708496 C76.4093437,18.7193189 76.611897,18.5090345 76.7634277,18.2399902 C76.9149584,17.9709459 77.0216468,17.652427 77.0834961,17.2844238 C77.1453454,16.9164207 77.1762695,16.5159527 77.1762695,16.0830078 L77.1762695,15.8881836 Z M88.5131836,19.5898438 C88.1730126,20.0908228 87.7632674,20.4835598 87.2839355,20.7680664 C86.8046037,21.052573 86.280439,21.1948242 85.7114258,21.1948242 C85.1918919,21.1948242 84.7156597,21.1144214 84.2827148,20.9536133 C83.84977,20.7928052 83.4786799,20.5376808 83.1694336,20.1882324 C82.8601873,19.8387841 82.6205249,19.393476 82.4504395,18.8522949 C82.280354,18.3111138 82.1953125,17.6601601 82.1953125,16.8994141 L82.1953125,10.9619141 L84.7744141,10.9619141 L84.7744141,16.9179688 C84.7744141,17.3261739 84.803792,17.6694322 84.8625488,17.9477539 C84.9213056,18.2260756 85.0156244,18.4502758 85.1455078,18.6203613 C85.2753913,18.7904468 85.4454742,18.9125973 85.6557617,18.9868164 C85.8660492,19.0610355 86.1227198,19.0981445 86.4257812,19.0981445 C86.9391302,19.0981445 87.3566065,19.0007334 87.6782227,18.8059082 C87.9998388,18.611083 88.2441398,18.3435889 88.4111328,18.003418 L88.4111328,10.9619141 L90.9995117,10.9619141 L90.9995117,21 L88.6616211,21 L88.5131836,19.5898438 Z M100.722168,10.7763672 C101.111818,10.7763672 101.472085,10.8026527 101.802979,10.8552246 C102.133872,10.9077965 102.401366,10.9650062 102.605469,11.0268555 L102.225098,13.5966797 C101.884927,13.5162756 101.53703,13.4559735 101.181396,13.4157715 C100.825763,13.3755695 100.487144,13.3554688 100.165527,13.3554688 C99.4418909,13.3554688 98.8620627,13.4946275 98.4260254,13.7729492 C97.9899881,14.0512709 97.6637381,14.4501927 97.4472656,14.9697266 L97.4472656,21 L94.8681641,21 L94.8681641,10.9619141 L97.2709961,10.9619141 L97.3916016,12.6040039 C97.7998067,12.0349906 98.2884086,11.5881364 98.8574219,11.2634277 C99.4264351,10.9387191 100.048011,10.7763672 100.722168,10.7763672 Z M113.441406,23.0131836 L104.980469,23.0131836 L104.980469,21 L113.441406,21 L113.441406,23.0131836 Z" id="Excalibur_" fill="#FFFFFF"></path>
                        <path d="M113.459961,9.21875 L110.899414,9.21875 L110.395508,11 L108.661133,11 L111.456055,2.46875 L112.950195,2.46875 L115.692383,11 L113.958008,11 L113.459961,9.21875 Z M111.303711,7.81835938 L113.073242,7.81835938 L112.200195,4.67773438 L111.303711,7.81835938 Z M116.864258,2 L120.40918,2 L120.40918,9.67578125 L122.225586,9.67578125 L122.225586,11 L116.864258,11 L116.864258,9.67578125 L118.762695,9.67578125 L118.762695,3.33007812 L116.864258,3.33007812 L116.864258,2 Z M129.420898,7.88867188 C129.420898,8.34961168 129.367188,8.77734178 129.259766,9.171875 C129.152343,9.56640822 128.994142,9.90722513 128.785156,10.1943359 C128.576171,10.4814467 128.317384,10.7070304 128.008789,10.8710938 C127.700194,11.0351571 127.346682,11.1171875 126.948242,11.1171875 C126.608397,11.1171875 126.309572,11.0585943 126.051758,10.9414062 C125.793944,10.8242182 125.569337,10.6601573 125.37793,10.4492188 L125.37793,13.4375 L123.749023,13.4375 L123.749023,4.66015625 L125.254883,4.66015625 L125.313477,5.28125 C125.50879,5.04687383 125.739256,4.86523502 126.004883,4.73632812 C126.270509,4.60742123 126.581053,4.54296875 126.936523,4.54296875 C127.338869,4.54296875 127.694334,4.62011642 128.00293,4.77441406 C128.311525,4.92871171 128.571288,5.14745952 128.782227,5.43066406 C128.993165,5.7138686 129.152343,6.05370896 129.259766,6.45019531 C129.367188,6.84668167 129.420898,7.28515385 129.420898,7.765625 L129.420898,7.88867188 Z M127.791992,7.765625 C127.791992,7.49999867 127.767578,7.25097772 127.71875,7.01855469 C127.669922,6.78613165 127.593751,6.58496179 127.490234,6.41503906 C127.386718,6.24511634 127.253907,6.11132861 127.091797,6.01367188 C126.929687,5.91601514 126.7334,5.8671875 126.50293,5.8671875 C126.217772,5.8671875 125.984376,5.92285101 125.802734,6.03417969 C125.621093,6.14550837 125.479493,6.30273336 125.37793,6.50585938 L125.37793,9.15429688 C125.479493,9.35351662 125.621093,9.51269472 125.802734,9.63183594 C125.984376,9.75097716 126.221678,9.81054688 126.514648,9.81054688 C126.745118,9.81054688 126.941405,9.75976613 127.103516,9.65820312 C127.265626,9.55664012 127.39746,9.41796963 127.499023,9.2421875 C127.600586,9.06640537 127.674804,8.86230585 127.72168,8.62988281 C127.768555,8.39745978 127.791992,8.15039193 127.791992,7.88867188 L127.791992,7.765625 Z M132.555664,5.53320312 C132.766603,5.22460783 133.023436,4.98242275 133.326172,4.80664062 C133.628908,4.6308585 133.967772,4.54296875 134.342773,4.54296875 C134.674806,4.54296875 134.979491,4.59277294 135.256836,4.69238281 C135.534181,4.79199269 135.77246,4.94726457 135.97168,5.15820312 C136.170899,5.36914168 136.326171,5.63964679 136.4375,5.96972656 C136.548829,6.29980634 136.604492,6.6972633 136.604492,7.16210938 L136.604492,11 L134.975586,11 L134.975586,7.15039062 C134.975586,6.92382699 134.947266,6.72851645 134.890625,6.56445312 C134.833984,6.4003898 134.75293,6.26757863 134.647461,6.16601562 C134.541992,6.06445262 134.41504,5.98925806 134.266602,5.94042969 C134.118163,5.89160132 133.950196,5.8671875 133.762695,5.8671875 C133.489256,5.8671875 133.251954,5.91601514 133.050781,6.01367188 C132.849608,6.11132861 132.684571,6.248046 132.555664,6.42382812 L132.555664,11 L130.926758,11 L130.926758,2 L132.555664,2 L132.555664,5.53320312 Z M142.088867,11 C142.049804,10.9218746 142.016602,10.8320318 141.989258,10.7304688 C141.961914,10.6289057 141.938477,10.5214849 141.918945,10.4082031 C141.829101,10.5058599 141.725587,10.5976558 141.608398,10.6835938 C141.49121,10.7695317 141.361329,10.8447262 141.21875,10.9091797 C141.076171,10.9736331 140.918946,11.0244139 140.74707,11.0615234 C140.575194,11.098633 140.389649,11.1171875 140.19043,11.1171875 C139.866209,11.1171875 139.568361,11.070313 139.296875,10.9765625 C139.025389,10.882812 138.791993,10.751954 138.59668,10.5839844 C138.401366,10.4160148 138.249024,10.2158215 138.139648,9.98339844 C138.030273,9.7509754 137.975586,9.49804824 137.975586,9.22460938 C137.975586,8.55663729 138.224607,8.04004089 138.722656,7.67480469 C139.220706,7.30956849 139.963862,7.12695312 140.952148,7.12695312 L141.860352,7.12695312 L141.860352,6.75195312 C141.860352,6.4472641 141.760743,6.20605558 141.561523,6.02832031 C141.362304,5.85058505 141.075197,5.76171875 140.700195,5.76171875 C140.368162,5.76171875 140.125977,5.8330071 139.973633,5.97558594 C139.821288,6.11816478 139.745117,6.30859256 139.745117,6.546875 L138.116211,6.546875 C138.116211,6.2773424 138.175781,6.02148559 138.294922,5.77929688 C138.414063,5.53710816 138.587889,5.32421967 138.816406,5.140625 C139.044923,4.95703033 139.324217,4.81152397 139.654297,4.70410156 C139.984377,4.59667915 140.362303,4.54296875 140.788086,4.54296875 C141.1709,4.54296875 141.527342,4.58984328 141.857422,4.68359375 C142.187502,4.77734422 142.473632,4.91601471 142.71582,5.09960938 C142.958009,5.28320404 143.14746,5.51464704 143.28418,5.79394531 C143.420899,6.07324358 143.489258,6.39648254 143.489258,6.76367188 L143.489258,9.48242188 C143.489258,9.82226732 143.510742,10.1035145 143.553711,10.3261719 C143.59668,10.5488292 143.659179,10.7402336 143.741211,10.9003906 L143.741211,11 L142.088867,11 Z M140.536133,9.85742188 C140.700196,9.85742188 140.852538,9.83789082 140.993164,9.79882812 C141.13379,9.75976543 141.260742,9.70898469 141.374023,9.64648438 C141.487305,9.58398406 141.584961,9.51269571 141.666992,9.43261719 C141.749024,9.35253866 141.813476,9.27148479 141.860352,9.18945312 L141.860352,8.09960938 L141.02832,8.09960938 C140.774413,8.09960938 140.557618,8.12402319 140.37793,8.17285156 C140.198241,8.22167993 140.051758,8.29003862 139.938477,8.37792969 C139.825195,8.46582075 139.741211,8.57128845 139.686523,8.69433594 C139.631836,8.81738343 139.604492,8.95117115 139.604492,9.09570312 C139.604492,9.31445422 139.68164,9.49609303 139.835938,9.640625 C139.990235,9.78515697 140.223631,9.85742188 140.536133,9.85742188 Z" id="Alpha" fill="#EF5777"></path>
                    </g>
                </g>
            </g>
        </g>
    </g>
</svg>