<?xml version="1.0" encoding="UTF-8"?>
<svg width="37px" height="61px" viewBox="0 0 37 61" version="1.1" xmlns="http://www.w3.org/2000/svg" xmlns:xlink="http://www.w3.org/1999/xlink">
    <!-- Generator: Sketch 49 (51002) - http://www.bohemiancoding.com/sketch -->
    <title>loader</title>
    <desc>Created with Sketch.</desc>
    <defs></defs>
    <g id="Page-1" stroke="none" stroke-width="1" fill="none" fill-rule="evenodd">
        <g id="loader" transform="translate(-12.000000, 0.000000)" fill="#000000" fill-rule="nonzero">
            <g id="Minecraft-Sword-595b40b75ba036ed117d98cb-Copy" transform="translate(30.405592, 30.405592) rotate(-45.000000) translate(-30.405592, -30.405592) translate(8.905592, 8.905592)">
                <path d="M29.8093434,0 L29.8093434,4.25847763 L38.3262987,4.25847763 L38.3262987,12.7754329 L42.5847763,12.7754329 L42.5847763,0 L29.8093434,0 Z M38.3262987,12.7754329 L34.067821,12.7754329 L34.067821,17.0339105 L38.3262987,17.0339105 L38.3262987,12.7754329 Z M34.067821,17.0339105 L29.8093434,17.0339105 L29.8093434,21.2923882 L34.067821,21.2923882 L34.067821,17.0339105 Z M29.8093434,21.2923882 L25.5508658,21.2923882 L25.5508658,25.5508658 L29.8093434,25.5508658 L29.8093434,21.2923882 Z M25.5508658,25.5508658 L21.2923882,25.5508658 L21.2923882,29.8093434 L25.5508658,29.8093434 L25.5508658,25.5508658 Z M21.2923882,29.8093434 L12.7754329,29.8093434 L12.7754329,34.067821 L21.2923882,34.067821 L21.2923882,29.8093434 Z M21.2923882,34.067821 L21.2923882,38.3262987 L17.0339105,38.3262987 L17.0339105,42.5847763 L25.5508658,42.5847763 L25.5508658,34.067821 L21.2923882,34.067821 Z M12.7754329,34.067821 L8.51695526,34.067821 L8.51695526,38.3262987 L12.7754329,38.3262987 L12.7754329,34.067821 Z M8.51695526,38.3262987 L4.25847763,38.3262987 L4.25847763,34.067821 L0,34.067821 L0,42.5847763 L8.51695526,42.5847763 L8.51695526,38.3262987 Z M4.25847763,34.067821 L8.51695526,34.067821 L8.51695526,29.8093434 L4.25847763,29.8093434 L4.25847763,34.067821 Z M8.51695526,29.8093434 L12.7754329,29.8093434 L12.7754329,21.2923882 L8.51695526,21.2923882 L8.51695526,29.8093434 Z M8.51695526,21.2923882 L8.51695526,17.0339105 L0,17.0339105 L0,25.5508658 L4.25847763,25.5508658 L4.25847763,21.2923882 L8.51695526,21.2923882 Z M12.7754329,21.2923882 L17.0339105,21.2923882 L17.0339105,17.0339105 L12.7754329,17.0339105 L12.7754329,21.2923882 Z M17.0339105,17.0339105 L21.2923882,17.0339105 L21.2923882,12.7754329 L17.0339105,12.7754329 L17.0339105,17.0339105 Z M21.2923882,12.7754329 L25.5508658,12.7754329 L25.5508658,8.51695526 L21.2923882,8.51695526 L21.2923882,12.7754329 Z M25.5508658,8.51695526 L29.8093434,8.51695526 L29.8093434,4.25847763 L25.5508658,4.25847763 L25.5508658,8.51695526 Z" id="Shape"></path>
            </g>
        </g>
    </g>
</svg>