<?xml version="1.0" encoding="UTF-8"?>
<svg width="28px" height="25px" viewBox="0 0 28 25" version="1.1" xmlns="http://www.w3.org/2000/svg" xmlns:xlink="http://www.w3.org/1999/xlink">
    <!-- Generator: Sketch 49 (51002) - http://www.bohemiancoding.com/sketch -->
    <title>metaMask</title>
    <desc>Created with Sketch.</desc>
    <defs></defs>
    <g id="Page-1" stroke="none" stroke-width="1" fill="none" fill-rule="evenodd">
        <g id="1" transform="translate(-1392.000000, -11.000000)">
            <g id="header">
                <g id="metaMaskB/W" transform="translate(1392.000000, 11.000000)">
                    <g id="metamask-recreated-faux-shadow">
                        <polygon id="Path-16" fill="#FFFFFF" points="8.02358503 22.8763208 11.6639153 23.8418798 11.6639153 22.5792257 11.9610851 22.2821306 14.0412738 22.2821306 14.0412738 23.767606 14.0412738 24.8074387 11.8125002 24.8074387 9.06367938 23.6190585"></polygon>
                        <polygon id="Path-16-Copy" fill="#FFFFFF" transform="translate(16.938679, 23.544785) scale(-1, 1) translate(-16.938679, -23.544785) " points="13.9669813 22.8763208 17.5330191 23.8418798 17.5330191 22.5792257 17.8301889 22.2821306 19.9103777 22.2821306 19.9103777 23.767606 19.9103777 24.8074387 17.681604 24.8074387 14.9327832 23.6190585"></polygon>
                        <polygon id="Path-17" fill="#000000" points="11.9610851 20.1281913 11.6639153 22.5792257 12.0353775 22.2821306 15.8985851 22.2821306 16.3443399 22.5792257 16.0471701 20.1281913 15.4528304 19.7568225 12.4811323 19.8310962"></polygon>
                        <polygon id="Path-20" fill="#474747" points="9.95518883 3.5651409 11.7382077 7.72447195 12.5554247 19.8310962 15.4528304 19.8310962 16.3443399 7.72447195 17.9787739 3.5651409"></polygon>
                        <g id="face/left">
                            <polygon id="Path-15" fill="#474747" points="2.15448116 12.7008144 0.0742924539 18.7169897 5.27476423 18.4198946 8.61792466 18.4198946 8.61792466 15.8203127 8.46933975 10.4726014 7.72641521 11.0667915"></polygon>
                            <polygon id="Path-8" fill="#2C2C2C" points="6.09198122 13.3692784 12.1839624 13.5178259 11.5153304 16.6373242 8.61792466 15.8945865"></polygon>
                            <polygon id="Path-9" fill="#242323" points="6.09198122 13.4435521 8.61792466 15.8203127 8.61792466 18.1970733"></polygon>
                            <polygon id="Path-10" fill="#474747" points="8.61792466 15.8945865 11.5896228 16.6373242 12.5554247 19.8310962 11.8867926 20.2024651 8.61792466 18.2713471"></polygon>
                            <polygon id="Path-11" fill="#2C2C2C" points="8.61792466 18.2713471 8.02358503 22.8763208 11.9610851 20.1281913"></polygon>
                            <polygon id="Path-12" fill="#242323" points="12.1839624 13.5178259 12.5554247 19.8310962 11.4410379 16.6001873"></polygon>
                            <polygon id="Path-13" fill="#242323" points="5.20047178 18.3456209 8.61792466 18.2713471 8.02358503 22.8763208"></polygon>
                            <polygon id="Path-14" fill="#242323" points="1.70872644 24.8817125 8.02358503 22.8763208 5.20047178 18.3456209 0.0742924539 18.7169897"></polygon>
                            <polygon id="Path-7" fill="#242323" points="11.7382077 7.72447195 8.5436322 10.3983276 6.09198122 13.3692784 12.1839624 13.5920997"></polygon>
                            <polygon id="Path-18" fill="#FFFFFF" points="8.02358503 22.8763208 11.9610851 20.1281913 11.6639153 22.5049519 11.6639153 23.8418798 8.98938693 23.3219634"></polygon>
                            <polygon id="Path-18-Copy" fill="#FFFFFF" transform="translate(17.978774, 21.985036) scale(-1, 1) translate(-17.978774, -21.985036) " points="16.0471701 22.8763208 19.9103777 20.1281913 19.6132078 22.5049519 19.6132078 23.8418798 16.9386795 23.3219634"></polygon>
                            <polygon id="Path-19-Copy" fill="#000000" transform="translate(9.918043, 15.708902) scale(-1, 1) translate(-9.918043, -15.708902) " points="9.28655674 14.8547537 8.46933975 16.5630504 11.3667455 15.8203127"></polygon>
                            <polygon id="Path-21" fill="#2C2C2C" points="1.63443399 0.0742737687 11.7382077 7.72447195 10.0294813 3.5651409"></polygon>
                            <path d="M1.63443399,0.0742737687 L0.297169816,4.15933105 L1.04009436,8.61575717 L0.520047178,8.91285225 L1.26297172,9.58131616 L0.668632085,10.1012325 L1.48584908,10.8439702 L0.965801901,11.2896128 L2.15448116,12.7750882 L7.72641521,11.0667915 C10.4504719,8.88809432 11.787736,7.77398779 11.7382077,7.72447195 C11.6886794,7.6749561 8.32075484,5.12489004 1.63443399,0.0742737687 Z" id="Path-22" fill="#242323"></path>
                        </g>
                        <g id="face/left-copy" transform="translate(21.594340, 12.500000) scale(-1, 1) translate(-21.594340, -12.500000) translate(15.254717, 0.000000)">
                            <polygon id="Path-15" fill="#474747" points="2.15448116 12.7008144 0.0742924539 18.7169897 5.27476423 18.4198946 8.61792466 18.4198946 8.61792466 15.8203127 8.46933975 10.4726014 7.72641521 11.0667915"></polygon>
                            <polygon id="Path-8" fill="#2C2C2C" points="6.09198122 13.3692784 12.1839624 13.5178259 11.5153304 16.6373242 8.61792466 15.8945865"></polygon>
                            <polygon id="Path-9" fill="#242323" points="6.09198122 13.4435521 8.61792466 15.8203127 8.61792466 18.1970733"></polygon>
                            <polygon id="Path-10" fill="#474747" points="8.61792466 15.8945865 11.5896228 16.6373242 12.5554247 19.8310962 11.8867926 20.2024651 8.61792466 18.2713471"></polygon>
                            <polygon id="Path-11" fill="#2C2C2C" points="8.61792466 18.2713471 8.02358503 22.8763208 11.8867926 20.2024651"></polygon>
                            <polygon id="Path-12" fill="#242323" points="12.1839624 13.5178259 12.5554247 19.8310962 11.4410379 16.6001873"></polygon>
                            <polygon id="Path-13" fill="#242323" points="5.20047178 18.3456209 8.61792466 18.2713471 8.02358503 22.8763208"></polygon>
                            <polygon id="Path-14" fill="#242323" points="1.70872644 24.8817125 8.02358503 22.8763208 5.20047178 18.3456209 0.0742924539 18.7169897"></polygon>
                            <polygon id="Path-7" fill="#242323" points="11.7382077 7.72447195 8.5436322 10.3983276 6.09198122 13.3692784 12.1839624 13.5920997"></polygon>
                            <polygon id="Path-19-Copy" fill="#000000" transform="translate(9.918043, 15.708902) scale(-1, 1) translate(-9.918043, -15.708902) " points="9.28655674 14.8547537 8.46933975 16.5630504 11.3667455 15.8203127"></polygon>
                            <polygon id="Path-21" fill="#2C2C2C" points="1.63443399 0.0742737687 11.7382077 7.72447195 10.0294813 3.5651409"></polygon>
                            <path d="M1.63443399,0.0742737687 L0.297169816,4.15933105 L1.04009436,8.61575717 L0.520047178,8.91285225 L1.26297172,9.58131616 L0.668632085,10.1012325 L1.48584908,10.8439702 L0.965801901,11.2896128 L2.15448116,12.7750882 L7.72641521,11.0667915 C10.4504719,8.88809432 11.787736,7.77398779 11.7382077,7.72447195 C11.6886794,7.6749561 8.32075484,5.12489004 1.63443399,0.0742737687 Z" id="Path-22" fill="#242323"></path>
                        </g>
                    </g>
                </g>
            </g>
        </g>
    </g>
</svg>