<svg xmlns="http://www.w3.org/2000/svg" width="19" height="20" viewBox="0 0 19 20">
    <g fill="#FFF" fill-rule="nonzero" stroke="#FFF" stroke-width=".3">
        <path d="M5.325 3.207c-.86 0-1.56.697-1.56 1.554a1.556 1.556 0 0 0 3.11 0c0-.847-.7-1.554-1.55-1.554zM4.088 4.761a1.235 1.235 0 0 1 2.055-.922l-1.14.697a.59.59 0 0 0-.194.814l.376.61a1.204 1.204 0 0 1-1.097-1.2zm1.463 1.2l-.473-.772c-.075-.128-.043-.3.086-.375l1.183-.728c.13.193.194.418.194.664.01.6-.42 1.104-.99 1.21z"/>
        <path d="M17.02 13.836l-.903.557-.237-.386 1.733-1.06-.926-1.511-1.732 1.06-2.227-3.578 1.969-1.2a.61.61 0 0 0 .269-.364.608.608 0 0 0-.075-.45L11.437 1.3a.613.613 0 0 0-.366-.268.615.615 0 0 0-.452.075l-1 .622a.632.632 0 0 0-.603-.408H1.699c-.355 0-.699.268-.699.622v7.286c0 .353.344.664.7.664h2.528V19h3.335v-1.929H6.38v-.535h2.26v-1.929H6.38V9.893h1.216l.667 1.071a.595.595 0 0 0 .817.193l1.97-1.21 4.314 6.985 2.582-1.586-.925-1.51zM9.609 4.3c.645.107 1.022.61 1.022 1.21s-.377 1.094-1.022 1.2V4.3zM6.057 9.571v5.358h2.26v1.285h-2.26v1.179h1.184v1.286H4.55V9.57H1.699c-.183 0-.376-.16-.376-.342V1.943c0-.182.193-.3.376-.3h7.317c.183 0 .269.128.269.3v7.286c0 .182-.086.342-.27.342H6.058zm5.1-.075l-2.238 1.372c-.13.075-.301.053-.377-.075l-.57-.9h1.044c.355 0 .592-.31.592-.664V7.043c.86-.107 1.345-.75 1.345-1.532s-.485-1.436-1.345-1.532V2.07l1.15-.685a.26.26 0 0 1 .216-.032c.075.021.14.064.172.117L14.6 7.064c.043.065.054.14.032.204a.33.33 0 0 1-.118.171l-2.238 1.372 2.55 4.135 1.732-1.06.592.953-1.732 1.061.57.932.904-.557.592.954-2.034 1.242-4.293-6.975z"/>
    </g>
</svg>
