<?xml version="1.0" standalone="no"?>
<!DOCTYPE svg PUBLIC "-//W3C//DTD SVG 20010904//EN"
 "http://www.w3.org/TR/2001/REC-SVG-20010904/DTD/svg10.dtd">
<svg version="1.0" xmlns="http://www.w3.org/2000/svg"
 width="700.000000pt" height="700.000000pt" viewBox="0 0 700.000000 700.000000"
 preserveAspectRatio="xMidYMid meet">
<metadata>
Created by potrace 1.11, written by Peter Selinger 2001-2013
</metadata>
<g transform="translate(0.000000,700.000000) scale(0.100000,-0.100000)"
fill="#000000" stroke="none">
<path d="M3010 6255 l-495 -495 165 -165 165 -165 -163 -163 -162 -162 165
-165 165 -165 -165 -165 -165 -165 165 -165 165 -165 -165 -165 -165 -165 165
-165 165 -165 -165 -165 -165 -165 165 -165 165 -165 -162 -162 -163 -163
-165 165 -165 165 -333 -333 -332 -332 328 -328 c180 -180 332 -327 337 -327
5 0 83 73 172 162 l163 163 -165 165 -165 165 163 163 162 162 325 -325 325
-325 -165 -165 -165 -165 165 -165 165 -165 -165 -165 -165 -165 333 -333 332
-332 332 332 333 333 -165 165 -165 165 165 165 165 165 -165 165 -165 165
328 328 327 327 162 -162 163 -163 -165 -165 -165 -165 168 -168 167 -167 332
333 333 332 -332 332 -333 333 -165 -165 -165 -165 -162 163 -163 162 165 165
165 165 -163 163 -162 162 160 160 c88 88 160 164 160 170 0 6 -72 82 -160
170 l-160 160 162 162 163 163 -165 165 -165 165 165 165 165 165 -165 165
-165 165 165 165 165 165 -495 495 c-272 272 -497 495 -500 495 -3 0 -228
-223 -500 -495z m665 -4285 l160 -160 -163 -163 -162 -162 -162 162 -163 163
160 160 c88 88 162 160 165 160 3 0 77 -72 165 -160z m0 -660 l160 -160 -163
-163 -162 -162 -162 162 -163 163 160 160 c88 88 162 160 165 160 3 0 77 -72
165 -160z"/>
</g>
</svg>
