<svg xmlns="http://www.w3.org/2000/svg" xmlns:xlink="http://www.w3.org/1999/xlink" width="18" height="21" viewBox="0 0 18 21"><defs><path id="4o1ka" d="M904.62 517.43h10.48V503.8h-10.48zm11.27 1.57h-12.06a.79.79 0 0 1-.8-.78v-15.2c0-.44.36-.8.8-.8h12.06c.44 0 .8.36.8.8v15.2c0 .43-.36.78-.8.78z"/><path id="4o1kb" d="M920.18 514.77h-4.29a.79.79 0 0 1-.8-.78c0-.43.36-.78.8-.78h3.5v-13.64H908.9V503c0 .43-.35.78-.79.78a.79.79 0 0 1-.8-.78v-4.23c0-.43.36-.78.8-.78h12.07c.43 0 .79.35.79.78v15.2c0 .44-.36.8-.8.8z"/></defs><g><g transform="translate(-903 -498)"><use fill="#fff" xlink:href="#4o1ka"/></g><g transform="translate(-903 -498)"><use fill="#fff" xlink:href="#4o1kb"/></g></g></svg>